<svg width="691" height="848" viewBox="0 0 691 848" fill="none" xmlns="http://www.w3.org/2000/svg">
<path d="M1052 2H3L79.968 82.5319L98.5894 175.112L197.903 231.715L149.488 170.673L118.452 92.6777V59.0699L164.385 92.6777L204.11 204.915L207.214 237.021L216.524 242.328L372.943 454.754L346.873 246.766L299.699 194.135L287.285 104.092L325.769 59.0699L396.53 128.188L399.013 468.182L641.336 592.99L629.917 308.275L581.502 242.328L616.262 121.213L668.401 60.9722L715.575 204.915L670.884 608.209L757.783 726.787L857.097 767.028L842.2 369.784L891.857 423.683L976.881 815.563L1052 846V2Z" fill="#D2D2D2"/>
<path d="M346.873 246.766L372.943 454.754L399.013 468.182L396.53 128.188L325.769 59.0699L287.285 104.092L299.699 194.135L346.873 246.766Z" fill="#E7E2DE"/>
<path d="M149.488 170.673L197.903 231.715L207.214 237.021L204.11 204.915L164.385 92.6777L118.452 59.0699V92.6777L149.488 170.673Z" fill="#E7E2DE"/>
<path d="M641.336 592.99L670.884 608.209L715.575 204.915L668.401 60.9722L616.262 121.213L581.502 242.328L629.917 308.275L641.336 592.99Z" fill="#E7E2DE"/>
<path d="M842.2 369.784L857.097 767.028L976.881 815.563L891.857 423.683L842.2 369.784Z" fill="#E7E2DE"/>
<path d="M1052 2H1053.27V0.732544H1052V2ZM3 2V0.732544H0.0353951L2.08373 2.87572L3 2ZM79.968 82.5319L81.2106 82.282L81.1382 81.9218L80.8843 81.6562L79.968 82.5319ZM98.5894 175.112L97.3468 175.362L97.4605 175.927L97.9618 176.213L98.5894 175.112ZM216.524 242.328L217.545 241.576L217.385 241.36L217.152 241.226L216.524 242.328ZM372.943 454.754L371.923 455.506L372.099 455.745L372.363 455.881L372.943 454.754ZM757.783 726.787L756.761 727.537L756.974 727.827L757.307 727.962L757.783 726.787ZM1052 846L1051.52 847.175L1053.27 847.881V846H1052ZM149.488 170.673L148.31 171.142L148.379 171.315L148.495 171.461L149.488 170.673ZM118.452 92.6777H117.185V92.9206L117.274 93.1463L118.452 92.6777ZM118.452 59.0699L119.2 58.047L117.185 56.572V59.0699H118.452ZM164.385 92.6777L165.579 92.2548L165.449 91.8859L165.133 91.6548L164.385 92.6777ZM204.11 204.915L205.372 204.793L205.357 204.639L205.305 204.492L204.11 204.915ZM207.214 237.021L206.586 238.122L206.586 238.122L207.214 237.021ZM346.873 246.766L348.131 246.609L348.082 246.215L347.817 245.92L346.873 246.766ZM299.699 194.135L298.444 194.308L298.497 194.692L298.756 194.981L299.699 194.135ZM287.285 104.092L286.322 103.268L285.952 103.701L286.03 104.265L287.285 104.092ZM325.769 59.0699L326.655 58.1632L325.686 57.2167L324.806 58.2463L325.769 59.0699ZM396.53 128.188L397.798 128.179L397.794 127.65L397.416 127.281L396.53 128.188ZM399.013 468.182L398.433 469.308L398.433 469.308L399.013 468.182ZM629.917 308.275L631.184 308.224L631.168 307.837L630.939 307.525L629.917 308.275ZM581.502 242.328L580.284 241.978L580.112 242.576L580.48 243.078L581.502 242.328ZM616.262 121.213L615.303 120.383L615.12 120.594L615.043 120.863L616.262 121.213ZM668.401 60.9722L669.606 60.5775L668.908 58.4496L667.443 60.1427L668.401 60.9722ZM715.575 204.915L716.835 205.055L716.865 204.782L716.78 204.52L715.575 204.915ZM857.097 767.028L856.621 768.203L856.621 768.203L857.097 767.028ZM842.2 369.784L843.132 368.925L840.805 366.399L840.933 369.831L842.2 369.784ZM891.857 423.683L893.095 423.414L893.022 423.078L892.789 422.824L891.857 423.683ZM976.881 815.563L976.405 816.737L976.405 816.737L976.881 815.563ZM1052 0.732544H3V3.26746H1052V0.732544ZM2.08373 2.87572L79.0518 83.4077L80.8843 81.6562L3.91627 1.12428L2.08373 2.87572ZM78.7255 82.7819L97.3468 175.362L99.8319 174.862L81.2106 82.282L78.7255 82.7819ZM215.504 243.079L371.923 455.506L373.964 454.003L217.545 241.576L215.504 243.079ZM669.862 608.958L756.761 727.537L758.806 726.038L671.906 607.46L669.862 608.958ZM1050.73 2V846H1053.27V2H1050.73ZM97.9618 176.213L197.275 232.816L198.531 230.613L99.2169 174.011L97.9618 176.213ZM198.896 230.927L150.481 169.886L148.495 171.461L196.91 232.502L198.896 230.927ZM150.665 170.205L119.63 92.2091L117.274 93.1463L148.31 171.142L150.665 170.205ZM119.72 92.6777V59.0699H117.185V92.6777H119.72ZM117.704 60.0928L163.636 93.7006L165.133 91.6548L119.2 58.047L117.704 60.0928ZM163.19 93.1006L202.915 205.338L205.305 204.492L165.579 92.2548L163.19 93.1006ZM197.275 232.816L206.586 238.122L207.841 235.92L198.531 230.613L197.275 232.816ZM206.586 238.122L215.897 243.429L217.152 241.226L207.841 235.92L206.586 238.122ZM202.848 205.037L205.952 237.143L208.475 236.899L205.372 204.793L202.848 205.037ZM374.201 454.597L348.131 246.609L345.616 246.924L371.686 454.912L374.201 454.597ZM347.817 245.92L300.643 193.289L298.756 194.981L345.93 247.612L347.817 245.92ZM300.955 193.962L288.541 103.919L286.03 104.265L298.444 194.308L300.955 193.962ZM288.249 104.915L326.733 59.8934L324.806 58.2463L286.322 103.268L288.249 104.915ZM324.884 59.9766L395.645 129.095L397.416 127.281L326.655 58.1632L324.884 59.9766ZM372.363 455.881L398.433 469.308L399.593 467.055L373.524 453.628L372.363 455.881ZM395.263 128.197L397.746 468.191L400.28 468.172L397.798 128.179L395.263 128.197ZM398.433 469.308L640.756 594.117L641.917 591.863L399.593 467.055L398.433 469.308ZM640.756 594.117L670.304 609.336L671.464 607.082L641.917 591.863L640.756 594.117ZM642.603 592.939L631.184 308.224L628.651 308.326L640.07 593.041L642.603 592.939ZM630.939 307.525L582.523 241.577L580.48 243.078L628.895 309.025L630.939 307.525ZM582.72 242.677L617.48 121.562L615.043 120.863L580.284 241.978L582.72 242.677ZM617.22 122.042L669.36 61.8017L667.443 60.1427L615.303 120.383L617.22 122.042ZM667.197 61.3669L714.371 205.31L716.78 204.52L669.606 60.5775L667.197 61.3669ZM714.315 204.776L669.624 608.069L672.144 608.348L716.835 205.055L714.315 204.776ZM857.573 765.853L758.259 725.613L757.307 727.962L856.621 768.203L857.573 765.853ZM858.364 766.98L843.467 369.736L840.933 369.831L855.83 767.075L858.364 766.98ZM841.268 370.642L890.925 424.542L892.789 422.824L843.132 368.925L841.268 370.642ZM1052.48 844.825L977.357 814.388L976.405 816.737L1051.52 847.175L1052.48 844.825ZM977.357 814.388L857.573 765.853L856.621 768.203L976.405 816.737L977.357 814.388ZM890.618 423.952L975.642 815.831L978.119 815.294L893.095 423.414L890.618 423.952Z" fill="black"/>
</svg>
