<svg width="714" height="614" viewBox="0 0 714 614" fill="none" xmlns="http://www.w3.org/2000/svg">
<path fill-rule="evenodd" clip-rule="evenodd" d="M436.444 587.39V373.538H305.894V587.39H436.444ZM412.82 395.918H329.517V480.464H412.82V395.918Z" fill="#DC2626"/>
<path d="M299.678 587.39V613.5H442.66V587.39H436.444H305.894H299.678Z" fill="#DC2626"/>
<path fill-rule="evenodd" clip-rule="evenodd" d="M809.442 613.5V561.28V285.262L504.827 37.8398L208.915 270.95V613.5H299.678V587.39H305.894V373.538H436.444V587.39H442.66V613.5H809.442ZM701.272 439.434V558.794H609.888H518.503V439.434H609.888H701.272Z" fill="#F2F2F2"/>
<path d="M232.538 87.5729V221.339L329.517 145.356V87.5729H232.538Z" fill="#626A80"/>
<path d="M1050.65 336.238C1061.01 335.824 1077.25 330.022 1059.35 310.128L818.145 257.909C695.786 160.313 627.185 105.595 504.827 8L329.517 145.356L232.538 221.339L143.018 291.478C139.289 300.596 137.299 317.091 159.182 310.128L208.915 270.95L504.827 37.8398L809.442 285.262L913.881 307.334L942.477 313.378L996.562 324.808L1027.02 331.246L1050.65 336.238Z" fill="#626A80"/>
<path d="M221.348 87.5729H232.538H329.517H341.951V60.2197H221.348V87.5729Z" fill="#626A80"/>
<path d="M978.534 613.5V588.633V561.28H942.477H913.881H809.442V613.5H978.534Z" fill="#F2F2F2"/>
<path d="M1029.51 613.5V588.633H978.534V613.5H1029.51Z" fill="#F2F2F2"/>
<path d="M913.881 307.334V561.28H942.477V404.621V371.051V313.378L913.881 307.334Z" fill="#854D0E"/>
<path d="M996.562 324.808L942.477 371.051V404.621L1027.02 331.246L996.562 324.808Z" fill="#854D0E"/>
<path d="M518.503 439.434V558.794H609.888V439.434H518.503Z" fill="#B0D5F1"/>
<path d="M701.272 558.794V439.434H609.888V558.794H701.272Z" fill="#B0D5F1"/>
<path d="M329.517 395.918H412.82V480.464H329.517V395.918Z" fill="#B0D5F1"/>
<path d="M1029.51 588.633H1035.73V582.417H1029.51V588.633ZM978.534 561.28H984.751V555.064H978.534V561.28ZM1050.65 336.238L1049.36 342.321L1050.12 342.481L1050.9 342.45L1050.65 336.238ZM1059.35 310.128L1063.97 305.97L1062.63 304.477L1060.67 304.052L1059.35 310.128ZM818.145 257.909L814.268 262.769L815.407 263.676L816.829 263.985L818.145 257.909ZM504.827 8L508.703 3.13999L504.861 0.0755134L500.992 3.1065L504.827 8ZM143.018 291.478L139.184 286.585L137.888 287.601L137.265 289.125L143.018 291.478ZM159.182 310.128L161.067 316.052L162.142 315.71L163.029 315.012L159.182 310.128ZM504.827 37.8398L508.746 33.0144L504.886 29.8791L500.98 32.9565L504.827 37.8398ZM1027.02 331.246L1028.31 325.163L1028.31 325.163L1027.02 331.246ZM208.915 613.5H202.698V619.717H208.915V613.5ZM221.348 87.5729H215.131V93.7895H221.348V87.5729ZM221.348 60.2197V54.0031H215.131V60.2197H221.348ZM341.951 60.2197H348.167V54.0031H341.951V60.2197ZM341.951 87.5729V93.7895H348.167V87.5729H341.951ZM329.517 145.356L333.352 150.249L333.352 150.249L329.517 145.356ZM299.678 587.39V581.174H293.461V587.39H299.678ZM442.66 587.39H448.877V581.174H442.66V587.39ZM436.444 373.538H442.66V367.321H436.444V373.538ZM305.894 373.538V367.321H299.678V373.538H305.894ZM329.517 395.918V389.701H323.301V395.918H329.517ZM412.82 395.918H419.037V389.701H412.82V395.918ZM412.82 480.464V486.681H419.037V480.464H412.82ZM329.517 480.464H323.301V486.681H329.517V480.464ZM518.503 439.434V433.218H512.286V439.434H518.503ZM701.272 439.434H707.489V433.218H701.272V439.434ZM701.272 558.794V565.01H707.489V558.794H701.272ZM518.503 558.794H512.286V565.01H518.503V558.794ZM1029.51 619.717H1081.5V607.283H1029.51V619.717ZM1035.73 613.5V588.633H1023.29V613.5H1035.73ZM1029.51 582.417H978.534V594.85H1029.51V582.417ZM978.534 619.717H1029.51V607.283H978.534V619.717ZM972.317 588.633V613.5H984.751V588.633H972.317ZM809.442 619.717H978.534V607.283H809.442V619.717ZM803.225 561.28V613.5H815.658V561.28H803.225ZM1050.9 342.45C1053.94 342.328 1057.51 341.812 1060.89 340.67C1064.19 339.555 1067.9 337.639 1070.5 334.317C1073.32 330.706 1074.29 326.107 1073.03 321.042C1071.85 316.293 1068.77 311.304 1063.97 305.97L1054.73 314.287C1058.88 318.899 1060.48 322.095 1060.97 324.043C1061.37 325.673 1061 326.281 1060.7 326.659C1060.18 327.325 1059.01 328.182 1056.9 328.892C1054.88 329.576 1052.53 329.941 1050.4 330.027L1050.9 342.45ZM1060.67 304.052L819.46 251.833L816.829 263.985L1058.03 316.204L1060.67 304.052ZM822.021 253.049C760.842 204.251 713.102 166.173 665.362 128.094C617.622 90.016 569.882 51.9377 508.703 3.13999L500.95 12.86C562.129 61.6577 609.869 99.736 657.609 137.814C705.349 175.893 753.089 213.971 814.268 262.769L822.021 253.049ZM137.265 289.125C136.175 291.788 135.186 295.041 134.733 298.382C134.292 301.629 134.275 305.552 135.73 309.159C137.326 313.117 140.543 316.25 145.389 317.464C149.826 318.576 155.096 317.952 161.067 316.052L157.297 304.204C152.326 305.786 149.639 305.711 148.411 305.404C147.592 305.199 147.436 304.943 147.261 304.508C146.944 303.722 146.756 302.247 147.053 300.054C147.338 297.955 147.997 295.728 148.772 293.832L137.265 289.125ZM500.907 42.6653L805.522 290.087L813.361 280.436L508.746 33.0144L500.907 42.6653ZM815.658 561.28V285.262H803.225V561.28H815.658ZM808.156 291.344L912.596 313.416L915.166 301.252L810.727 279.18L808.156 291.344ZM913.881 555.064H809.442V567.497H913.881V555.064ZM907.664 307.334V561.28H920.098V307.334H907.664ZM912.596 313.416L941.192 319.46L943.763 307.295L915.166 301.252L912.596 313.416ZM978.534 555.064H942.477V567.497H978.534V555.064ZM942.477 555.064H913.881V567.497H942.477V555.064ZM936.261 313.378V371.051H948.694V313.378H936.261ZM941.192 319.46L995.277 330.89L997.848 318.726L943.763 307.295L941.192 319.46ZM946.517 375.776L1000.6 329.533L992.522 320.083L938.438 366.326L946.517 375.776ZM936.261 371.051V404.621H948.694V371.051H936.261ZM936.261 404.621V561.28H948.694V404.621H936.261ZM995.277 330.89L1025.74 337.328L1028.31 325.163L997.848 318.726L995.277 330.89ZM1025.74 337.328L1049.36 342.321L1051.93 330.156L1028.31 325.163L1025.74 337.328ZM946.552 409.316L1031.1 335.941L1022.95 326.551L938.403 399.926L946.552 409.316ZM163.029 315.012L212.762 275.834L205.068 266.067L155.335 305.245L163.029 315.012ZM212.762 275.834L508.674 42.7232L500.98 32.9565L205.068 266.067L212.762 275.834ZM215.131 613.5V270.95H202.698V613.5H215.131ZM228.704 216.446L139.184 286.585L146.853 296.372L236.372 226.233L228.704 216.446ZM238.755 221.339V87.5729H226.321V221.339H238.755ZM232.538 81.3563H221.348V93.7895H232.538V81.3563ZM227.565 87.5729V60.2197H215.131V87.5729H227.565ZM221.348 66.4363H341.951V54.0031H221.348V66.4363ZM335.734 60.2197V87.5729H348.167V60.2197H335.734ZM341.951 81.3563H329.517V93.7895H341.951V81.3563ZM329.517 81.3563H232.538V93.7895H329.517V81.3563ZM500.992 3.1065L325.683 140.462L333.352 150.249L508.661 12.8935L500.992 3.1065ZM325.683 140.462L228.704 216.446L236.372 226.233L333.352 150.249L325.683 140.462ZM323.301 87.5729V145.356H335.734V87.5729H323.301ZM208.915 619.717H299.678V607.283H208.915V619.717ZM305.894 613.5V587.39H293.461V613.5H305.894ZM299.678 619.717H442.66V607.283H299.678V619.717ZM442.66 619.717H809.442V607.283H442.66V619.717ZM436.444 587.39V613.5H448.877V587.39H436.444ZM436.444 593.607H442.66V581.174H436.444V593.607ZM442.66 587.39V373.538H430.227V587.39H442.66ZM436.444 367.321H305.894V379.755H436.444V367.321ZM299.678 593.607H305.894V581.174H299.678V593.607ZM305.894 593.607H436.444V581.174H305.894V593.607ZM299.678 373.538V587.39H312.111V373.538H299.678ZM329.517 402.135H412.82V389.701H329.517V402.135ZM406.604 395.918V480.464H419.037V395.918H406.604ZM412.82 474.247H329.517V486.681H412.82V474.247ZM335.734 480.464V395.918H323.301V480.464H335.734ZM406.604 505.331V527.711H419.037V505.331H406.604ZM695.055 439.434V558.794H707.489V439.434H695.055ZM524.72 558.794V439.434H512.286V558.794H524.72ZM518.503 445.651H609.888V433.218H518.503V445.651ZM609.888 445.651H701.272V433.218H609.888V445.651ZM701.272 552.577H609.888V565.01H701.272V552.577ZM609.888 552.577H518.503V565.01H609.888V552.577ZM603.671 439.434V558.794H616.104V439.434H603.671ZM972.317 561.28V588.633H984.751V561.28H972.317Z" fill="black"/>
<path fill-rule="evenodd" clip-rule="evenodd" d="M503.315 148C481.589 148 437.912 161.935 437.013 217.673C436.114 273.411 480.84 287.345 503.315 287.345C526.913 287.345 573.886 273.411 572.987 217.673C572.088 161.935 526.164 148 503.315 148ZM503.315 170.475C539.275 170.475 549.763 201.94 550.512 217.673C550.512 255.431 519.047 264.121 503.315 263.746C465.557 263.746 457.615 233.03 458.365 217.673C458.365 180.814 488.331 170.85 503.315 170.475Z" fill="#626A80"/>
<path d="M503.315 217.673V263.746C519.047 264.121 550.512 255.431 550.512 217.673H503.315Z" fill="#B0D5F1"/>
<path d="M550.512 217.673C549.763 201.94 539.275 170.475 503.315 170.475V217.673H550.512Z" fill="#B0D5F1"/>
<path d="M503.315 170.475C488.331 170.85 458.365 180.814 458.365 217.673H503.315V170.475Z" fill="#B0D5F1"/>
<path d="M458.365 217.673C457.615 233.03 465.557 263.746 503.315 263.746V217.673H458.365Z" fill="#B0D5F1"/>
<path d="M503.315 170.475V164.856H503.244L503.174 164.858L503.315 170.475ZM550.512 217.673H556.131V217.539L556.125 217.405L550.512 217.673ZM556.125 217.405C555.709 208.689 552.647 195.758 544.648 184.851C536.464 173.691 523.223 164.856 503.315 164.856V176.094C519.366 176.094 529.349 182.992 535.586 191.497C542.01 200.256 544.566 210.924 544.9 217.94L556.125 217.405ZM503.174 164.858C494.752 165.069 482.301 167.923 471.813 175.925C461.067 184.124 452.746 197.476 452.746 217.673H463.983C463.983 201.01 470.646 190.95 478.629 184.859C486.87 178.571 496.894 176.256 503.455 176.092L503.174 164.858ZM452.752 217.399C452.333 225.991 454.301 238.809 461.772 249.656C469.467 260.827 482.649 269.365 503.315 269.365V258.128C486.222 258.128 476.555 251.308 471.027 243.281C465.275 234.931 463.647 224.712 463.977 217.946L452.752 217.399ZM503.181 269.363C511.941 269.572 524.991 267.301 536.023 259.62C547.365 251.724 556.131 238.39 556.131 217.673H544.893C544.893 234.713 537.927 244.603 529.603 250.398C520.97 256.408 510.421 258.295 503.448 258.129L503.181 269.363ZM503.315 142.381C491.471 142.381 473.859 146.13 458.953 157.462C443.795 168.985 431.872 188.038 431.395 217.582L442.631 217.763C443.054 191.569 453.418 175.786 465.754 166.407C478.344 156.837 493.433 153.619 503.315 153.619V142.381ZM431.395 217.582C430.917 247.209 442.675 266.344 458.019 277.899C473.077 289.238 491.143 292.964 503.315 292.964V281.726C493.011 281.726 477.477 278.485 464.779 268.922C452.366 259.575 442.21 243.874 442.631 217.763L431.395 217.582ZM503.315 292.964C515.992 292.964 534.861 289.267 550.611 277.977C566.664 266.471 579.085 247.325 578.605 217.582L567.369 217.763C567.789 243.758 557.172 259.449 544.064 268.844C530.653 278.456 514.236 281.726 503.315 281.726V292.964ZM578.605 217.582C578.127 187.925 565.546 168.86 549.675 157.382C534.075 146.099 515.66 142.381 503.315 142.381V153.619C513.819 153.619 529.79 156.868 543.09 166.487C556.118 175.91 566.949 191.682 567.369 217.763L578.605 217.582ZM497.696 217.673V263.746H508.933V217.673H497.696ZM550.512 212.054H503.315V223.291H550.512V212.054ZM458.365 223.291H503.315V212.054H458.365V223.291ZM497.696 170.475V217.673H508.933V170.475H497.696Z" fill="black"/>
<path d="M544 518.8L563.35 493M568.725 518.8L587 493" stroke="#C9E6F9" stroke-width="4.3"/>
<path d="M637 518.8L656.35 493M661.725 518.8L680 493" stroke="#C9E6F9" stroke-width="4.3"/>
<path d="M348 451.8L367.35 426M372.725 451.8L391 426" stroke="#C9E6F9" stroke-width="4.3"/>
<path d="M202.701 610.5H30" stroke="#7A983D" stroke-width="7"/>
<path d="M120.678 454.304C81.4518 454.304 3 431.039 3 337.979C3 244.919 81.4518 222.556 120.678 223.007C159.453 223.908 237.003 248.165 237.003 337.979C237.003 427.793 159.453 452.952 120.678 454.304Z" fill="#87A93E"/>
<path d="M120.678 454.304V457.009H120.725L120.772 457.008L120.678 454.304ZM120.678 223.007L120.741 220.302L120.725 220.302L120.709 220.302L120.678 223.007ZM120.678 451.599C101.491 451.599 72.6565 445.887 48.6978 428.835C24.8785 411.882 5.70523 383.614 5.70523 337.979H0.294766C0.294766 385.404 20.3474 415.298 45.5605 433.243C70.6341 451.089 100.638 457.009 120.678 457.009V451.599ZM5.70523 337.979C5.70523 292.346 24.8759 264.311 48.6808 247.642C72.6305 230.872 101.459 225.491 120.647 225.712L120.709 220.302C100.67 220.071 70.6601 225.647 45.5774 243.21C20.35 260.875 0.294766 290.552 0.294766 337.979H5.70523ZM120.615 225.711C139.587 226.152 168.105 232.33 191.803 249.348C215.369 266.272 234.297 293.991 234.297 337.979H239.708C239.708 292.154 219.862 262.837 194.959 244.954C170.188 227.164 140.544 220.763 120.741 220.302L120.615 225.711ZM234.297 337.979C234.297 381.97 215.366 409.922 191.786 427.129C168.08 444.429 139.555 450.939 120.583 451.601L120.772 457.008C140.575 456.317 170.213 449.571 194.976 431.5C219.865 413.337 239.708 383.802 239.708 337.979H234.297Z" fill="black"/>
<circle cx="80.0992" cy="298.753" r="12.1736" fill="#7A983D"/>
<circle cx="165.314" cy="291.99" r="5.41047" fill="#7A983D"/>
<circle cx="170.725" cy="400.199" r="5.41047" fill="#7A983D"/>
<circle cx="46.2838" cy="310.927" r="5.41047" fill="#7A983D"/>
<circle cx="170.725" cy="327.158" r="8.1157" fill="#97B844"/>
<circle cx="71.9835" cy="382.615" r="12.1736" fill="#7A983D"/>
<path d="M188.996 500.293C175.691 500.293 149.083 492.402 149.083 460.839C149.083 429.276 175.691 421.691 188.996 421.844C202.147 422.149 228.45 430.377 228.45 460.839C228.45 491.301 202.147 499.834 188.996 500.293Z" fill="#87A93E"/>
<path d="M188.996 500.293V502.998H189.043L189.09 502.997L188.996 500.293ZM188.996 421.844L189.058 419.139L189.043 419.139L189.027 419.138L188.996 421.844ZM188.996 497.588C182.77 497.588 173.376 495.72 165.619 490.198C158 484.776 151.788 475.726 151.788 460.839H146.377C146.377 477.516 153.469 488.192 162.481 494.606C171.354 500.921 181.917 502.998 188.996 502.998V497.588ZM151.788 460.839C151.788 445.954 157.998 436.988 165.602 431.664C173.35 426.238 182.738 424.477 188.964 424.549L189.027 419.138C181.949 419.057 171.38 421.012 162.498 427.232C153.472 433.552 146.377 444.16 146.377 460.839H151.788ZM188.933 424.548C195.093 424.691 204.394 426.713 212.076 432.23C219.628 437.653 225.744 446.526 225.744 460.839H231.155C231.155 444.689 224.12 434.218 215.232 427.835C206.476 421.547 196.05 419.302 189.058 419.139L188.933 424.548ZM225.744 460.839C225.744 475.154 219.625 484.111 212.06 489.632C204.368 495.245 195.061 497.375 188.901 497.589L189.09 502.997C196.082 502.753 206.501 500.386 215.249 494.003C224.123 487.526 231.155 476.986 231.155 460.839H225.744Z" fill="black"/>
<circle cx="175.232" cy="447.535" r="4.12892" fill="#7A983D"/>
<circle cx="204.135" cy="445.241" r="1.83508" fill="#7A983D"/>
<circle cx="205.97" cy="481.942" r="1.83508" fill="#7A983D"/>
<circle cx="163.763" cy="451.664" r="1.83508" fill="#7A983D"/>
<circle cx="205.97" cy="457.169" r="2.75261" fill="#97B844"/>
<circle cx="172.48" cy="475.978" r="4.12892" fill="#7A983D"/>
<path d="M120.678 608.502V505.704M120.678 305.516V373.147M120.678 402.905L161.256 373.147M120.678 402.905V373.147M120.678 402.905V454.304V505.704M120.678 373.147L93.6254 344.742M120.678 505.704L185.603 461.067" stroke="#854D0E" stroke-width="11.6325"/>
</svg>
