<svg width="719" height="1246" viewBox="0 0 719 1246" fill="none" xmlns="http://www.w3.org/2000/svg">
<path fill-rule="evenodd" clip-rule="evenodd" d="M432.756 585.39V371.538H302.207V585.39H432.756ZM409.133 393.918H325.83V478.464H409.133V393.918Z" fill="#DC2626"/>
<path d="M295.99 585.39V611.5H438.973V585.39H432.756H302.207H295.99Z" fill="#DC2626"/>
<path fill-rule="evenodd" clip-rule="evenodd" d="M805.754 611.5V559.28V283.262L501.139 35.8398L205.227 268.95V611.5H295.99V585.39H302.207V371.538H432.756V585.39H438.973V611.5H805.754ZM697.585 437.434V556.794H606.2H514.816V437.434H606.2H697.585Z" fill="#F2F2F2"/>
<path d="M228.851 85.5729V219.339L325.83 143.356V85.5729H228.851Z" fill="#626A80"/>
<path d="M1046.96 334.238C1057.32 333.824 1073.57 328.022 1055.66 308.128L814.457 255.909C692.099 158.313 623.498 103.595 501.139 6L325.83 143.356L228.851 219.339L139.331 289.478C135.601 298.596 133.612 315.091 155.494 308.128L205.227 268.95L501.139 35.8398L805.754 283.262L910.194 305.334L938.79 311.378L992.875 322.808L1023.34 329.246L1046.96 334.238Z" fill="#626A80"/>
<path d="M217.661 85.5729H228.851H325.83H338.263V58.2197H217.661V85.5729Z" fill="#626A80"/>
<path d="M974.847 611.5V586.633V559.28H938.79H910.194H805.754V611.5H974.847Z" fill="#F2F2F2"/>
<path d="M1025.82 611.5V586.633H974.847V611.5H1025.82Z" fill="#F2F2F2"/>
<path d="M910.194 305.334V559.28H938.79V402.621V369.051V311.378L910.194 305.334Z" fill="#854D0E"/>
<path d="M992.875 322.808L938.79 369.051V402.621L1023.34 329.246L992.875 322.808Z" fill="#854D0E"/>
<path d="M514.816 437.434V556.794H606.2V437.434H514.816Z" fill="#B0D5F1"/>
<path d="M697.585 556.794V437.434H606.2V556.794H697.585Z" fill="#B0D5F1"/>
<path d="M325.83 393.918H409.133V478.464H325.83V393.918Z" fill="#B0D5F1"/>
<path d="M1025.82 586.633H1029.82V582.633H1025.82V586.633ZM974.847 559.28H978.847V555.28H974.847V559.28ZM1046.96 334.238L1046.13 338.152L1046.62 338.255L1047.12 338.235L1046.96 334.238ZM1055.66 308.128L1058.64 305.452L1057.77 304.492L1056.51 304.219L1055.66 308.128ZM814.457 255.909L811.963 259.036L812.696 259.62L813.611 259.818L814.457 255.909ZM501.139 6L503.633 2.8729L501.161 0.901107L498.672 2.85135L501.139 6ZM139.331 289.478L136.864 286.33L136.03 286.983L135.629 287.964L139.331 289.478ZM155.494 308.128L156.707 311.94L157.399 311.72L157.97 311.27L155.494 308.128ZM501.139 35.8398L503.661 32.735L501.177 30.7176L498.664 32.6977L501.139 35.8398ZM1023.34 329.246L1024.16 325.332L1024.16 325.332L1023.34 329.246ZM205.227 611.5H201.227V615.5H205.227V611.5ZM217.661 85.5729H213.661V89.5729H217.661V85.5729ZM217.661 58.2197V54.2197H213.661V58.2197H217.661ZM338.263 58.2197H342.263V54.2197H338.263V58.2197ZM338.263 85.5729V89.5729H342.263V85.5729H338.263ZM325.83 143.356L328.297 146.504L328.297 146.504L325.83 143.356ZM295.99 585.39V581.39H291.99V585.39H295.99ZM438.973 585.39H442.973V581.39H438.973V585.39ZM432.756 371.538H436.756V367.538H432.756V371.538ZM302.207 371.538V367.538H298.207V371.538H302.207ZM325.83 393.918V389.918H321.83V393.918H325.83ZM409.133 393.918H413.133V389.918H409.133V393.918ZM409.133 478.464V482.464H413.133V478.464H409.133ZM325.83 478.464H321.83V482.464H325.83V478.464ZM514.816 437.434V433.434H510.816V437.434H514.816ZM697.585 437.434H701.585V433.434H697.585V437.434ZM697.585 556.794V560.794H701.585V556.794H697.585ZM514.816 556.794H510.816V560.794H514.816V556.794ZM1025.82 615.5H1077.81V607.5H1025.82V615.5ZM1029.82 611.5V586.633H1021.82V611.5H1029.82ZM1025.82 582.633H974.847V590.633H1025.82V582.633ZM974.847 615.5H1025.82V607.5H974.847V615.5ZM970.847 586.633V611.5H978.847V586.633H970.847ZM805.754 615.5H974.847V607.5H805.754V615.5ZM801.754 559.28V611.5H809.754V559.28H801.754ZM1047.12 338.235C1050 338.12 1053.35 337.631 1056.49 336.57C1059.58 335.527 1062.83 333.801 1065.06 330.952C1067.43 327.917 1068.3 324.03 1067.19 319.577C1066.14 315.328 1063.32 310.658 1058.64 305.452L1052.69 310.804C1056.96 315.545 1058.82 319.061 1059.43 321.508C1059.99 323.751 1059.51 325.07 1058.76 326.024C1057.87 327.164 1056.24 328.209 1053.93 328.992C1051.66 329.758 1049.09 330.15 1046.8 330.241L1047.12 338.235ZM1056.51 304.219L815.304 251.999L813.611 259.818L1054.82 312.038L1056.51 304.219ZM816.952 252.782C755.772 203.984 708.033 165.906 660.293 127.827C612.553 89.7489 564.813 51.6706 503.633 2.8729L498.645 9.1271C559.824 57.9248 607.564 96.0031 655.304 134.081C703.044 172.16 750.784 210.238 811.963 259.036L816.952 252.782ZM135.629 287.964C134.595 290.49 133.665 293.561 133.242 296.68C132.827 299.739 132.847 303.226 134.098 306.33C135.441 309.66 138.112 312.279 142.24 313.314C146.105 314.282 150.915 313.783 156.707 311.94L154.282 304.317C149.132 305.955 145.985 306.005 144.185 305.554C142.648 305.169 141.946 304.4 141.518 303.337C140.998 302.048 140.846 300.137 141.169 297.756C141.484 295.436 142.202 293.026 143.033 290.993L135.629 287.964ZM498.617 38.9447L803.232 286.367L808.276 280.157L503.661 32.735L498.617 38.9447ZM809.754 559.28V283.262H801.754V559.28H809.754ZM804.927 287.175L909.367 309.248L911.021 301.421L806.581 279.348L804.927 287.175ZM910.194 555.28H805.754V563.28H910.194V555.28ZM906.194 305.334V559.28H914.194V305.334H906.194ZM909.367 309.248L937.963 315.291L939.617 307.464L911.021 301.421L909.367 309.248ZM974.847 555.28H938.79V563.28H974.847V555.28ZM938.79 555.28H910.194V563.28H938.79V555.28ZM934.79 311.378V369.051H942.79V311.378H934.79ZM937.963 315.291L992.048 326.721L993.702 318.894L939.617 307.464L937.963 315.291ZM941.389 372.092L995.474 325.848L990.275 319.768L936.191 366.011L941.389 372.092ZM934.79 369.051V402.621H942.79V369.051H934.79ZM934.79 402.621V559.28H942.79V402.621H934.79ZM992.048 326.721L1022.51 333.159L1024.16 325.332L993.702 318.894L992.048 326.721ZM1022.51 333.159L1046.13 338.152L1047.79 330.325L1024.16 325.332L1022.51 333.159ZM941.412 405.642L1025.96 332.267L1020.71 326.225L936.168 399.6L941.412 405.642ZM157.97 311.27L207.703 272.092L202.752 265.808L153.019 304.986L157.97 311.27ZM207.703 272.092L503.614 38.982L498.664 32.6977L202.752 265.808L207.703 272.092ZM209.227 611.5V268.95H201.227V611.5H209.227ZM226.384 216.191L136.864 286.33L141.798 292.627L231.318 222.488L226.384 216.191ZM232.851 219.339V85.5729H224.851V219.339H232.851ZM228.851 81.5729H217.661V89.5729H228.851V81.5729ZM221.661 85.5729V58.2197H213.661V85.5729H221.661ZM217.661 62.2197H338.263V54.2197H217.661V62.2197ZM334.263 58.2197V85.5729H342.263V58.2197H334.263ZM338.263 81.5729H325.83V89.5729H338.263V81.5729ZM325.83 81.5729H228.851V89.5729H325.83V81.5729ZM498.672 2.85135L323.363 140.207L328.297 146.504L503.606 9.14865L498.672 2.85135ZM323.363 140.207L226.384 216.191L231.318 222.488L328.297 146.504L323.363 140.207ZM321.83 85.5729V143.356H329.83V85.5729H321.83ZM205.227 615.5H295.99V607.5H205.227V615.5ZM299.99 611.5V585.39H291.99V611.5H299.99ZM295.99 615.5H438.973V607.5H295.99V615.5ZM438.973 615.5H805.754V607.5H438.973V615.5ZM434.973 585.39V611.5H442.973V585.39H434.973ZM432.756 589.39H438.973V581.39H432.756V589.39ZM436.756 585.39V371.538H428.756V585.39H436.756ZM432.756 367.538H302.207V375.538H432.756V367.538ZM295.99 589.39H302.207V581.39H295.99V589.39ZM302.207 589.39H432.756V581.39H302.207V589.39ZM298.207 371.538V585.39H306.207V371.538H298.207ZM325.83 397.918H409.133V389.918H325.83V397.918ZM405.133 393.918V478.464H413.133V393.918H405.133ZM409.133 474.464H325.83V482.464H409.133V474.464ZM329.83 478.464V393.918H321.83V478.464H329.83ZM405.133 503.331V525.711H413.133V503.331H405.133ZM693.585 437.434V556.794H701.585V437.434H693.585ZM518.816 556.794V437.434H510.816V556.794H518.816ZM514.816 441.434H606.2V433.434H514.816V441.434ZM606.2 441.434H697.585V433.434H606.2V441.434ZM697.585 552.794H606.2V560.794H697.585V552.794ZM606.2 552.794H514.816V560.794H606.2V552.794ZM602.2 437.434V556.794H610.2V437.434H602.2ZM970.847 559.28V586.633H978.847V559.28H970.847Z" fill="black"/>
<path fill-rule="evenodd" clip-rule="evenodd" d="M499.627 146C477.901 146 434.225 159.935 433.326 215.673C432.427 271.411 477.152 285.345 499.627 285.345C523.226 285.345 570.199 271.411 569.3 215.673C568.401 159.935 522.477 146 499.627 146ZM499.627 168.475C535.587 168.475 546.076 199.94 546.825 215.673C546.825 253.431 515.36 262.121 499.627 261.746C461.869 261.746 453.928 231.03 454.677 215.673C454.677 178.814 484.644 168.85 499.627 168.475Z" fill="#626A80"/>
<path d="M499.627 215.673V261.746C515.36 262.121 546.825 253.431 546.825 215.673H499.627Z" fill="#B0D5F1"/>
<path d="M546.825 215.673C546.076 199.94 535.587 168.475 499.627 168.475V215.673H546.825Z" fill="#B0D5F1"/>
<path d="M499.627 168.475C484.644 168.85 454.677 178.814 454.677 215.673H499.627V168.475Z" fill="#B0D5F1"/>
<path d="M454.677 215.673C453.928 231.03 461.869 261.746 499.627 261.746V215.673H454.677Z" fill="#B0D5F1"/>
<path d="M499.627 168.475V164.475H499.577L499.527 164.476L499.627 168.475ZM546.825 215.673H550.825V215.577L550.82 215.482L546.825 215.673ZM550.82 215.482C550.417 207.011 547.427 194.406 539.656 183.809C531.752 173.031 518.98 164.475 499.627 164.475V172.475C516.234 172.475 526.687 179.652 533.204 188.54C539.854 197.608 542.484 208.602 542.829 215.863L550.82 215.482ZM499.527 164.476C491.373 164.68 479.272 167.457 469.107 175.212C458.759 183.108 450.677 195.985 450.677 215.673H458.677C458.677 198.501 465.579 187.967 473.96 181.572C482.525 175.037 492.898 172.644 499.727 172.474L499.527 164.476ZM450.682 215.478C450.276 223.807 452.195 236.251 459.418 246.738C466.8 257.456 479.476 265.746 499.627 265.746V257.746C482.02 257.746 471.847 250.679 466.006 242.2C460.007 233.489 458.33 222.896 458.672 215.867L450.682 215.478ZM499.532 265.745C508.035 265.948 520.724 263.732 531.411 256.292C542.318 248.699 550.825 235.86 550.825 215.673H542.825C542.825 233.243 535.599 243.629 526.84 249.726C517.861 255.977 506.952 257.92 499.722 257.747L499.532 265.745ZM499.627 142C488.066 142 470.817 145.673 456.246 156.75C441.494 167.965 429.795 186.547 429.326 215.608L437.325 215.737C437.756 189.06 448.344 172.806 461.087 163.119C474.01 153.295 489.463 150 499.627 150V142ZM429.326 215.608C428.857 244.728 440.383 263.369 455.305 274.606C470.023 285.689 487.725 289.345 499.627 289.345V281.345C489.055 281.345 473.156 278.034 460.118 268.215C447.283 258.55 436.896 242.355 437.325 215.737L429.326 215.608ZM499.627 289.345C512.052 289.345 530.567 285.709 545.981 274.662C561.61 263.459 573.77 244.811 573.299 215.608L565.3 215.737C565.728 242.272 554.852 258.46 541.32 268.159C527.572 278.013 510.801 281.345 499.627 281.345V289.345ZM573.299 215.608C572.829 186.466 560.5 167.876 545.039 156.693C529.771 145.65 511.707 142 499.627 142V150C510.397 150 526.72 153.317 540.351 163.176C553.789 172.895 564.871 189.141 565.3 215.737L573.299 215.608ZM495.627 215.673V261.746H503.627V215.673H495.627ZM546.825 211.673H499.627V219.673H546.825V211.673ZM454.677 219.673H499.627V211.673H454.677V219.673ZM495.627 168.475V215.673H503.627V168.475H495.627Z" fill="black"/>
<path d="M540.313 516.8L559.663 491M565.038 516.8L583.313 491" stroke="#C9E6F9" stroke-width="4.3"/>
<path d="M633.313 516.8L652.663 491M658.038 516.8L676.313 491" stroke="#C9E6F9" stroke-width="4.3"/>
<path d="M344.313 449.8L363.663 424M369.038 449.8L387.313 424" stroke="#C9E6F9" stroke-width="4.3"/>
<path d="M120.678 461.304C81.4518 461.304 3 438.039 3 344.979C3 251.919 81.4518 229.556 120.678 230.007C159.453 230.908 237.003 255.165 237.003 344.979C237.003 434.793 159.453 459.952 120.678 461.304Z" fill="#87A93E"/>
<path d="M120.678 461.304V464.009H120.725L120.772 464.008L120.678 461.304ZM120.678 230.007L120.741 227.302L120.725 227.302L120.709 227.302L120.678 230.007ZM120.678 458.599C101.491 458.599 72.6565 452.887 48.6978 435.835C24.8785 418.882 5.70523 390.614 5.70523 344.979H0.294766C0.294766 392.404 20.3474 422.298 45.5605 440.243C70.6341 458.089 100.638 464.009 120.678 464.009V458.599ZM5.70523 344.979C5.70523 299.346 24.8759 271.311 48.6808 254.642C72.6305 237.872 101.459 232.491 120.647 232.712L120.709 227.302C100.67 227.071 70.6601 232.647 45.5774 250.21C20.35 267.875 0.294766 297.552 0.294766 344.979H5.70523ZM120.615 232.711C139.587 233.152 168.105 239.33 191.803 256.348C215.369 273.272 234.297 300.991 234.297 344.979H239.708C239.708 299.154 219.862 269.837 194.959 251.954C170.188 234.164 140.544 227.763 120.741 227.302L120.615 232.711ZM234.297 344.979C234.297 388.97 215.366 416.922 191.786 434.129C168.08 451.429 139.555 457.939 120.583 458.601L120.772 464.008C140.575 463.317 170.213 456.571 194.976 438.5C219.865 420.337 239.708 390.802 239.708 344.979H234.297Z" fill="black"/>
<circle cx="80.0992" cy="305.753" r="12.1736" fill="#7A983D"/>
<circle cx="165.314" cy="298.99" r="5.41047" fill="#7A983D"/>
<circle cx="170.725" cy="407.199" r="5.41047" fill="#7A983D"/>
<circle cx="46.2838" cy="317.927" r="5.41047" fill="#7A983D"/>
<circle cx="170.725" cy="334.158" r="8.1157" fill="#97B844"/>
<circle cx="71.9835" cy="389.615" r="12.1736" fill="#7A983D"/>
<path d="M188.996 507.293C175.691 507.293 149.083 499.402 149.083 467.839C149.083 436.276 175.691 428.691 188.996 428.844C202.147 429.149 228.45 437.377 228.45 467.839C228.45 498.301 202.147 506.834 188.996 507.293Z" fill="#87A93E"/>
<path d="M188.996 507.293V509.998H189.043L189.09 509.997L188.996 507.293ZM188.996 428.844L189.058 426.139L189.043 426.139L189.027 426.139L188.996 428.844ZM188.996 504.588C182.77 504.588 173.376 502.72 165.619 497.198C158 491.776 151.788 482.726 151.788 467.839H146.377C146.377 484.516 153.469 495.192 162.481 501.606C171.354 507.921 181.917 509.998 188.996 509.998V504.588ZM151.788 467.839C151.788 452.954 157.998 443.988 165.602 438.664C173.35 433.238 182.738 431.477 188.964 431.549L189.027 426.139C181.949 426.057 171.38 428.012 162.498 434.232C153.472 440.552 146.377 451.16 146.377 467.839H151.788ZM188.933 431.548C195.093 431.691 204.394 433.713 212.076 439.23C219.628 444.653 225.744 453.526 225.744 467.839H231.155C231.155 451.689 224.12 441.218 215.232 434.835C206.476 428.547 196.05 426.302 189.058 426.139L188.933 431.548ZM225.744 467.839C225.744 482.154 219.625 491.111 212.06 496.632C204.368 502.245 195.061 504.375 188.901 504.589L189.09 509.997C196.082 509.753 206.501 507.386 215.249 501.003C224.123 494.526 231.155 483.986 231.155 467.839H225.744Z" fill="black"/>
<circle cx="175.232" cy="454.535" r="4.12892" fill="#7A983D"/>
<circle cx="204.135" cy="452.241" r="1.83508" fill="#7A983D"/>
<circle cx="205.97" cy="488.942" r="1.83508" fill="#7A983D"/>
<circle cx="163.763" cy="458.664" r="1.83508" fill="#7A983D"/>
<circle cx="205.97" cy="464.169" r="2.75261" fill="#97B844"/>
<circle cx="172.48" cy="482.978" r="4.12892" fill="#7A983D"/>
<path d="M120.678 615.502V512.704M120.678 312.516V380.147M120.678 409.905L161.256 380.147M120.678 409.905V380.147M120.678 409.905V461.304V512.704M120.678 380.147L93.6254 351.742M120.678 512.704L185.603 468.067" stroke="#854D0E" stroke-width="11.6325"/>
<path d="M1080 609H31L107.968 689.532L126.589 782.112L225.903 838.715L177.488 777.673L146.452 699.678V666.07L192.385 699.678L232.11 811.915L235.214 844.021L244.524 849.328L400.943 1061.75L374.873 853.766L327.699 801.135L315.285 711.092L353.769 666.07L424.53 735.188L427.013 1075.18L669.336 1199.99L657.917 915.275L609.502 849.328L644.262 728.213L696.401 667.972L743.575 811.915L698.884 1215.21L785.783 1333.79L885.097 1374.03L870.2 976.784L919.857 1030.68L1004.88 1422.56L1080 1453V609Z" fill="#D2D2D2"/>
<path d="M374.873 853.766L400.943 1061.75L427.013 1075.18L424.53 735.188L353.769 666.07L315.285 711.092L327.699 801.135L374.873 853.766Z" fill="#E7E2DE"/>
<path d="M177.488 777.673L225.903 838.715L235.214 844.021L232.11 811.915L192.385 699.678L146.452 666.07V699.678L177.488 777.673Z" fill="#E7E2DE"/>
<path d="M669.336 1199.99L698.884 1215.21L743.575 811.915L696.401 667.972L644.262 728.213L609.502 849.328L657.917 915.275L669.336 1199.99Z" fill="#E7E2DE"/>
<path d="M870.2 976.784L885.097 1374.03L1004.88 1422.56L919.857 1030.68L870.2 976.784Z" fill="#E7E2DE"/>
<path d="M1080 609H1082V607H1080V609ZM31 609V607H26.322L29.5542 610.382L31 609ZM107.968 689.532L109.929 689.138L109.814 688.569L109.414 688.15L107.968 689.532ZM126.589 782.112L124.629 782.506L124.808 783.399L125.599 783.85L126.589 782.112ZM244.524 849.328L246.135 848.142L245.883 847.8L245.515 847.59L244.524 849.328ZM400.943 1061.75L399.333 1062.94L399.611 1063.32L400.027 1063.53L400.943 1061.75ZM785.783 1333.79L784.17 1334.97L784.506 1335.43L785.032 1335.64L785.783 1333.79ZM1080 1453L1079.25 1454.85L1082 1455.97V1453H1080ZM177.488 777.673L175.629 778.413L175.738 778.686L175.921 778.916L177.488 777.673ZM146.452 699.678H144.452V700.061L144.594 700.417L146.452 699.678ZM146.452 666.07L147.633 664.456L144.452 662.128V666.07H146.452ZM192.385 699.678L194.27 699.01L194.064 698.428L193.566 698.064L192.385 699.678ZM232.11 811.915L234.101 811.723L234.077 811.479L233.995 811.248L232.11 811.915ZM235.214 844.021L234.223 845.759L234.223 845.759L235.214 844.021ZM374.873 853.766L376.858 853.518L376.78 852.897L376.363 852.431L374.873 853.766ZM327.699 801.135L325.718 801.408L325.802 802.015L326.21 802.47L327.699 801.135ZM315.285 711.092L313.765 709.792L313.181 710.475L313.304 711.365L315.285 711.092ZM353.769 666.07L355.167 664.639L353.638 663.146L352.249 664.77L353.769 666.07ZM424.53 735.188L426.53 735.173L426.524 734.34L425.928 733.757L424.53 735.188ZM427.013 1075.18L426.097 1076.96L426.097 1076.96L427.013 1075.18ZM657.917 915.275L659.916 915.195L659.891 914.584L659.529 914.091L657.917 915.275ZM609.502 849.328L607.579 848.776L607.309 849.72L607.89 850.511L609.502 849.328ZM644.262 728.213L642.749 726.904L642.461 727.237L642.339 727.661L644.262 728.213ZM696.401 667.972L698.302 667.349L697.201 663.992L694.889 666.663L696.401 667.972ZM743.575 811.915L745.563 812.135L745.611 811.704L745.476 811.292L743.575 811.915ZM885.097 1374.03L884.346 1375.88L884.346 1375.88L885.097 1374.03ZM870.2 976.784L871.671 975.428L867.998 971.442L868.201 976.859L870.2 976.784ZM919.857 1030.68L921.811 1030.26L921.696 1029.73L921.328 1029.33L919.857 1030.68ZM1004.88 1422.56L1004.13 1424.42L1004.13 1424.42L1004.88 1422.56ZM1080 607H31V611H1080V607ZM29.5542 610.382L106.522 690.914L109.414 688.15L32.4458 607.618L29.5542 610.382ZM106.007 689.926L124.629 782.506L128.55 781.718L109.929 689.138L106.007 689.926ZM242.914 850.513L399.333 1062.94L402.554 1060.57L246.135 848.142L242.914 850.513ZM697.271 1216.39L784.17 1334.97L787.397 1332.61L700.497 1214.03L697.271 1216.39ZM1078 609V1453H1082V609H1078ZM125.599 783.85L224.913 840.452L226.893 836.977L127.58 780.374L125.599 783.85ZM227.47 837.472L179.055 776.43L175.921 778.916L224.336 839.957L227.47 837.472ZM179.346 776.934L148.31 698.938L144.594 700.417L175.629 778.413L179.346 776.934ZM148.452 699.678V666.07H144.452V699.678H148.452ZM145.271 667.684L191.204 701.292L193.566 698.064L147.633 664.456L145.271 667.684ZM190.499 700.345L230.225 812.582L233.995 811.248L194.27 699.01L190.499 700.345ZM224.913 840.452L234.223 845.759L236.204 842.283L226.893 836.977L224.913 840.452ZM234.223 845.759L243.534 851.065L245.515 847.59L236.204 842.283L234.223 845.759ZM230.119 812.108L233.223 844.214L237.204 843.829L234.101 811.723L230.119 812.108ZM402.928 1061.51L376.858 853.518L372.889 854.015L398.959 1062L402.928 1061.51ZM376.363 852.431L329.189 799.8L326.21 802.47L373.384 855.101L376.363 852.431ZM329.681 800.862L317.266 710.819L313.304 711.365L325.718 801.408L329.681 800.862ZM316.805 712.391L355.29 667.369L352.249 664.77L313.765 709.792L316.805 712.391ZM352.372 667.501L423.133 736.619L425.928 733.757L355.167 664.639L352.372 667.501ZM400.027 1063.53L426.097 1076.96L427.929 1073.4L401.859 1059.98L400.027 1063.53ZM422.53 735.202L425.013 1075.2L429.013 1075.17L426.53 735.173L422.53 735.202ZM426.097 1076.96L668.42 1201.77L670.252 1198.21L427.929 1073.4L426.097 1076.96ZM668.42 1201.77L697.968 1216.99L699.8 1213.43L670.252 1198.21L668.42 1201.77ZM671.335 1199.91L659.916 915.195L655.919 915.355L667.338 1200.07L671.335 1199.91ZM659.529 914.091L611.114 848.144L607.89 850.511L656.305 916.459L659.529 914.091ZM611.424 849.879L646.184 728.764L642.339 727.661L607.579 848.776L611.424 849.879ZM645.774 729.521L697.913 669.281L694.889 666.663L642.749 726.904L645.774 729.521ZM694.501 668.595L741.675 812.538L745.476 811.292L698.302 667.349L694.501 668.595ZM741.587 811.695L696.896 1214.99L700.872 1215.43L745.563 812.135L741.587 811.695ZM885.848 1372.17L786.535 1331.93L785.032 1335.64L884.346 1375.88L885.848 1372.17ZM887.096 1373.95L872.199 976.709L868.201 976.859L883.098 1374.1L887.096 1373.95ZM868.729 978.139L918.386 1032.04L921.328 1029.33L871.671 975.428L868.729 978.139ZM1080.75 1451.15L1005.63 1420.71L1004.13 1424.42L1079.25 1454.85L1080.75 1451.15ZM1005.63 1420.71L885.848 1372.17L884.346 1375.88L1004.13 1424.42L1005.63 1420.71ZM917.902 1031.11L1002.93 1422.99L1006.84 1422.14L921.811 1030.26L917.902 1031.11Z" fill="black"/>
</svg>
